<svg width="18" height="13" viewBox="0 0 18 13" fill="none" xmlns="http://www.w3.org/2000/svg">
<path d="M1.99819 12.485C1.46881 12.4832 0.961633 12.2726 0.5873 11.8992C0.212967 11.5259 0.00184962 11.02 0 10.492L0 1.992C0.00211363 1.46416 0.213347 0.958565 0.587652 0.585419C0.961956 0.212274 1.46898 0.00184323 1.99819 0L15.0471 0C15.5763 0.00210814 16.0832 0.212793 16.4573 0.586125C16.8314 0.959458 17.0424 1.46516 17.0443 1.993V10.493C17.0424 11.021 16.8313 11.5269 16.457 11.9002C16.0826 12.2736 15.5755 12.4842 15.0461 12.486L1.99819 12.485ZM1.33246 10.492C1.33273 10.668 1.40295 10.8368 1.52774 10.9612C1.65253 11.0857 1.82171 11.1557 1.99819 11.156H15.0471C15.2236 11.1557 15.3927 11.0857 15.5175 10.9612C15.6423 10.8368 15.7125 10.668 15.7128 10.492V2.4L8.52213 7.734L1.33146 2.4L1.33246 10.492ZM8.52213 6.079L14.9258 1.329H2.11951L8.52213 6.079Z" fill="#D9C3A9"/>
</svg>
