<svg width="18" height="17" viewBox="0 0 18 17" fill="none" xmlns="http://www.w3.org/2000/svg">
<path d="M16.2161 2.22L13.9833 0L9.34427 4.619L11.1419 6.471C10.5749 7.44808 9.87926 8.34505 9.07357 9.138C8.27383 9.94568 7.3703 10.6441 6.38659 11.215L4.56586 9.422L0 13.949L2.22077 16.179C2.63336 16.5917 3.16453 16.866 3.74055 16.9638C4.31657 17.0617 4.90883 16.9782 5.43512 16.725C7.87782 15.5234 10.1043 13.9268 12.0242 12C13.957 10.0856 15.5588 7.86521 16.7645 5.429C16.949 5.05005 17.0446 4.63424 17.0443 4.213C17.0444 3.8428 16.9713 3.47622 16.8292 3.13423C16.6871 2.79224 16.4788 2.48157 16.2161 2.22ZM15.5664 4.846C14.4255 7.14933 12.9101 9.24838 11.0818 11.058C9.26776 12.8815 7.16359 14.393 4.85461 15.531C4.57761 15.6637 4.26608 15.7072 3.9632 15.6554C3.66032 15.6036 3.38109 15.4592 3.16422 15.242L1.88189 13.955L4.56887 11.291L6.1199 12.818L6.53497 12.634C7.83073 11.9831 9.00695 11.1186 10.014 10.077C11.056 9.07806 11.9186 7.90848 12.5646 6.619L12.7441 6.211L11.2121 4.634L13.9833 1.874L15.2717 3.159C15.4903 3.37488 15.6361 3.65329 15.689 3.95558C15.7418 4.25788 15.699 4.56908 15.5664 4.846Z" fill="#D9C3A9"/>
</svg>
