<svg width="14" height="12" viewBox="0 0 14 12" fill="none" xmlns="http://www.w3.org/2000/svg">
<path d="M12.5508 2.81641C13.0977 2.40625 13.5898 1.91406 13.9727 1.33984C13.4805 1.55859 12.9062 1.72266 12.332 1.77734C12.9336 1.42188 13.3711 0.875 13.5898 0.191406C13.043 0.519531 12.4141 0.765625 11.7852 0.902344C11.2383 0.328125 10.5 0 9.67969 0C8.09375 0 6.80859 1.28516 6.80859 2.87109C6.80859 3.08984 6.83594 3.30859 6.89062 3.52734C4.51172 3.39062 2.37891 2.24219 0.957031 0.519531C0.710938 0.929688 0.574219 1.42188 0.574219 1.96875C0.574219 2.95312 1.06641 3.82812 1.85938 4.34766C1.39453 4.32031 0.929688 4.21094 0.546875 3.99219V4.01953C0.546875 5.41406 1.53125 6.5625 2.84375 6.83594C2.625 6.89062 2.35156 6.94531 2.10547 6.94531C1.91406 6.94531 1.75 6.91797 1.55859 6.89062C1.91406 8.03906 2.98047 8.85938 4.23828 8.88672C3.25391 9.65234 2.02344 10.1172 0.683594 10.1172C0.4375 10.1172 0.21875 10.0898 0 10.0625C1.25781 10.8828 2.76172 11.3477 4.40234 11.3477C9.67969 11.3477 12.5508 7 12.5508 3.19922C12.5508 3.0625 12.5508 2.95312 12.5508 2.81641Z" fill="white"/>
</svg>
