<svg width="13" height="13" viewBox="0 0 13 13" fill="none" xmlns="http://www.w3.org/2000/svg">
<path d="M2.73438 12.2227H0.191406V4.04688H2.73438V12.2227ZM1.44922 2.95312C0.65625 2.95312 0 2.26953 0 1.44922C0 0.65625 0.65625 0 1.44922 0C2.26953 0 2.92578 0.65625 2.92578 1.44922C2.92578 2.26953 2.26953 2.95312 1.44922 2.95312ZM12.2227 12.2227H9.70703V8.25781C9.70703 7.30078 9.67969 6.09766 8.36719 6.09766C7.05469 6.09766 6.86328 7.10938 6.86328 8.17578V12.2227H4.32031V4.04688H6.75391V5.16797H6.78125C7.13672 4.53906 7.95703 3.85547 9.1875 3.85547C11.7578 3.85547 12.25 5.55078 12.25 7.73828V12.2227H12.2227Z" fill="white"/>
</svg>
