<svg width="15" height="15" viewBox="0 0 15 15" fill="none" xmlns="http://www.w3.org/2000/svg">
<path d="M10.2857 6.28582C10.2857 8.49118 8.49107 10.2858 6.28571 10.2858C4.08036 10.2858 2.28571 8.49118 2.28571 6.28582C2.28571 4.08046 4.08036 2.28582 6.28571 2.28582C8.49107 2.28582 10.2857 4.08046 10.2857 6.28582ZM14.8571 13.7144C14.8571 13.4108 14.7321 13.1162 14.5268 12.9108L11.4643 9.84832C12.1875 8.80368 12.5714 7.55368 12.5714 6.28582C12.5714 2.8126 9.75893 0.000103951 6.28571 0.000103951C2.8125 0.000103951 0 2.8126 0 6.28582C0 9.75903 2.8125 12.5715 6.28571 12.5715C7.55357 12.5715 8.80357 12.1876 9.84822 11.4644L12.9107 14.518C13.1161 14.7322 13.4107 14.8572 13.7143 14.8572C14.3393 14.8572 14.8571 14.3394 14.8571 13.7144Z" fill="#4F5955"/>
</svg>
