<svg width="17" height="21" viewBox="0 0 17 21" fill="none" xmlns="http://www.w3.org/2000/svg">
<path d="M8.43286 4.51401C7.6595 4.51401 6.90352 4.74274 6.2605 5.17128C5.61747 5.59982 5.11631 6.20892 4.82035 6.92155C4.5244 7.63418 4.44696 8.41834 4.59784 9.17487C4.74871 9.93139 5.12112 10.6263 5.66797 11.1717C6.21481 11.7172 6.91153 12.0886 7.67003 12.2391C8.42852 12.3896 9.21473 12.3123 9.92922 12.0171C10.6437 11.722 11.2544 11.2221 11.684 10.5807C12.1137 9.93938 12.343 9.18536 12.343 8.41401C12.343 7.90185 12.2419 7.39472 12.0454 6.92155C11.8489 6.44838 11.5609 6.01844 11.1978 5.6563C10.8347 5.29415 10.4036 5.00688 9.92922 4.81088C9.45482 4.61489 8.94635 4.51401 8.43286 4.51401ZM8.43286 10.67C7.9853 10.67 7.5478 10.5376 7.17567 10.2896C6.80354 10.0416 6.51351 9.68914 6.34224 9.27673C6.17096 8.86431 6.12616 8.41051 6.21347 7.97269C6.30078 7.53488 6.5163 7.13272 6.83277 6.81707C7.14924 6.50142 7.55245 6.28647 7.9914 6.19938C8.43036 6.11229 8.88534 6.15699 9.29883 6.32781C9.71232 6.49864 10.0657 6.78793 10.3144 7.15909C10.563 7.53025 10.6957 7.96662 10.6957 8.41301C10.6949 9.01136 10.4563 9.58497 10.0321 10.0081C9.60789 10.4312 9.03276 10.6692 8.43286 10.67Z" fill="#D9C3A9"/>
<path d="M8.43491 0C6.19856 0.00238235 4.0545 0.889514 2.47316 2.46674C0.891829 4.04397 0.00238855 6.18247 0 8.413V8.646C0 10.992 1.3485 13.726 4.01042 16.772C5.21116 18.1433 6.51861 19.418 7.92057 20.584L8.43491 21L8.95225 20.583C10.3542 19.417 11.6617 18.1424 12.8624 16.771C15.5223 13.725 16.8728 10.991 16.8728 8.645V8.413C16.8704 6.18195 15.9806 4.043 14.3986 2.46568C12.8166 0.88837 10.6718 0.00158818 8.43491 0ZM15.2235 8.646C15.2235 12.611 10.1012 17.41 8.43491 18.867C6.76758 17.41 1.64627 12.61 1.64627 8.646V8.413C1.64627 7.52375 1.82188 6.64322 2.16307 5.82166C2.50425 5.0001 3.00434 4.25362 3.63477 3.62483C4.26519 2.99603 5.01362 2.49725 5.83732 2.15695C6.66102 1.81665 7.54385 1.6415 8.43541 1.6415C9.32697 1.6415 10.2098 1.81665 11.0335 2.15695C11.8572 2.49725 12.6056 2.99603 13.2361 3.62483C13.8665 4.25362 14.3666 5.0001 14.7077 5.82166C15.0489 6.64322 15.2245 7.52375 15.2245 8.413L15.2235 8.646Z" fill="#D9C3A9"/>
</svg>
